<mxfile host="65bd71144e">
    <diagram id="blKL1a39S89av-7oey_n" name="ページ1">
        <mxGraphModel dx="454" dy="370" grid="1" gridSize="10" guides="1" tooltips="1" connect="1" arrows="1" fold="1" page="1" pageScale="1" pageWidth="827" pageHeight="1169" math="1" shadow="0">
            <root>
                <mxCell id="0"/>
                <mxCell id="1" parent="0"/>
                <mxCell id="11" style="edgeStyle=none;rounded=0;html=1;entryX=1;entryY=0.5;entryDx=0;entryDy=0;endArrow=none;endFill=0;exitX=1;exitY=0.5;exitDx=0;exitDy=0;exitPerimeter=0;strokeWidth=2;" parent="1" source="2" target="8" edge="1">
                    <mxGeometry relative="1" as="geometry">
                        <Array as="points">
                            <mxPoint x="480" y="440"/>
                        </Array>
                    </mxGeometry>
                </mxCell>
                <mxCell id="2" value="1N4002" style="pointerEvents=1;fillColor=strokeColor;verticalLabelPosition=middle;shadow=0;dashed=0;align=left;html=1;verticalAlign=middle;shape=mxgraph.electrical.diodes.diode;direction=north;strokeWidth=2;labelPosition=right;fontSize=14;" parent="1" vertex="1">
                    <mxGeometry x="450" y="310" width="60" height="100" as="geometry"/>
                </mxCell>
                <mxCell id="5" style="edgeStyle=none;html=1;entryX=0;entryY=0.5;entryDx=0;entryDy=0;entryPerimeter=0;exitX=1;exitY=0.5;exitDx=0;exitDy=0;exitPerimeter=0;endArrow=none;endFill=0;rounded=0;strokeWidth=2;" parent="1" source="3" target="4" edge="1">
                    <mxGeometry relative="1" as="geometry">
                        <Array as="points">
                            <mxPoint x="240" y="270"/>
                        </Array>
                    </mxGeometry>
                </mxCell>
                <mxCell id="10" style="edgeStyle=none;rounded=0;html=1;entryX=0;entryY=0.5;entryDx=0;entryDy=0;endArrow=none;endFill=0;exitX=0;exitY=0.5;exitDx=0;exitDy=0;exitPerimeter=0;strokeWidth=2;entryPerimeter=0;" parent="1" source="3" target="8" edge="1">
                    <mxGeometry relative="1" as="geometry">
                        <Array as="points">
                            <mxPoint x="240" y="440"/>
                        </Array>
                    </mxGeometry>
                </mxCell>
                <mxCell id="3" value="`E`" style="verticalLabelPosition=top;shadow=0;dashed=0;align=center;fillColor=#000000;html=1;verticalAlign=bottom;strokeWidth=2;shape=mxgraph.electrical.miscellaneous.monocell_battery;rotation=-90;labelPosition=center;fontSize=14;" parent="1" vertex="1">
                    <mxGeometry x="190" y="330" width="100" height="60" as="geometry"/>
                </mxCell>
                <mxCell id="6" style="edgeStyle=none;rounded=0;html=1;entryX=0;entryY=0.5;entryDx=0;entryDy=0;entryPerimeter=0;endArrow=none;endFill=0;exitX=1;exitY=0.5;exitDx=0;exitDy=0;exitPerimeter=0;strokeWidth=2;" parent="1" source="4" target="2" edge="1">
                    <mxGeometry relative="1" as="geometry">
                        <Array as="points">
                            <mxPoint x="480" y="270"/>
                        </Array>
                    </mxGeometry>
                </mxCell>
                <mxCell id="4" value="`5[\Omega]`" style="pointerEvents=1;verticalLabelPosition=top;shadow=0;dashed=0;align=center;html=1;verticalAlign=bottom;shape=mxgraph.electrical.resistors.resistor_1;strokeWidth=2;labelPosition=center;fontSize=14;" parent="1" vertex="1">
                    <mxGeometry x="305" y="260" width="100" height="20" as="geometry"/>
                </mxCell>
                <mxCell id="8" value="A" style="verticalLabelPosition=middle;shadow=0;dashed=0;align=center;html=1;verticalAlign=middle;strokeWidth=2;shape=ellipse;aspect=fixed;fontSize=50;" parent="1" vertex="1">
                    <mxGeometry x="420" y="420" width="40" height="40" as="geometry"/>
                </mxCell>
                <mxCell id="14" style="edgeStyle=none;rounded=0;html=1;endArrow=oval;endFill=1;exitX=0.5;exitY=0;exitDx=0;exitDy=0;strokeWidth=2;" parent="1" source="9" edge="1">
                    <mxGeometry relative="1" as="geometry">
                        <mxPoint x="480" y="310" as="targetPoint"/>
                        <Array as="points">
                            <mxPoint x="395" y="310"/>
                        </Array>
                    </mxGeometry>
                </mxCell>
                <mxCell id="21" style="edgeStyle=none;rounded=0;html=1;endArrow=oval;endFill=1;strokeWidth=2;" edge="1" parent="1" source="9">
                    <mxGeometry relative="1" as="geometry">
                        <mxPoint x="395" y="440" as="targetPoint"/>
                    </mxGeometry>
                </mxCell>
                <mxCell id="9" value="V" style="verticalLabelPosition=middle;shadow=0;dashed=0;align=center;html=1;verticalAlign=middle;strokeWidth=2;shape=ellipse;aspect=fixed;fontSize=50;" parent="1" vertex="1">
                    <mxGeometry x="370" y="330" width="50" height="50" as="geometry"/>
                </mxCell>
            </root>
        </mxGraphModel>
    </diagram>
</mxfile>